<svg width="52" height="50" viewBox="0 0 52 50" fill="none" xmlns="http://www.w3.org/2000/svg">
<path d="M11.9199 45H7.20508V26.5391L2.60645 28.3154V24.3975L11.4219 20.7949H11.9199V45ZM30.1013 35.0059C30.1013 38.3483 29.4926 40.9049 28.2751 42.6758C27.0687 44.4466 25.3422 45.332 23.0954 45.332C20.8708 45.332 19.1498 44.4743 17.9323 42.7588C16.726 41.0322 16.1006 38.5641 16.0564 35.3545V30.7891C16.0564 27.4577 16.6596 24.9121 17.8659 23.1523C19.0723 21.3815 20.8044 20.4961 23.0622 20.4961C25.32 20.4961 27.0521 21.3704 28.2585 23.1191C29.4649 24.8678 30.0792 27.3636 30.1013 30.6064V35.0059ZM25.3864 30.1084C25.3864 28.2048 25.1983 26.777 24.822 25.8252C24.4457 24.8734 23.8591 24.3975 23.0622 24.3975C21.5681 24.3975 20.7933 26.1406 20.738 29.627V35.6533C20.738 37.6012 20.9262 39.0511 21.3025 40.0029C21.6898 40.9548 22.2875 41.4307 23.0954 41.4307C23.8591 41.4307 24.4236 40.988 24.7888 40.1025C25.1651 39.2061 25.3643 37.8392 25.3864 36.002V30.1084Z" fill="white"/>
<path d="M11.9894 5.45398V0L2 7.79529L11.9894 15.5914V10.3033H47.0886V40.1506H33.2442V45H52V5.45398H11.9894Z" fill="white"/>
</svg>